<svg xmlns="http://www.w3.org/2000/svg" width="31.595" height="20" viewBox="0 0 31.595 20"><path d="M33.429,12.646,28.821,6.49a1.33,1.33,0,0,0-.925-.542,1.357,1.357,0,0,0-1.037.271L24.307,8.133a1.33,1.33,0,0,0-.542.925v.223l-.447.3a1.079,1.079,0,0,1-.765.144L18.1,8.707a2.206,2.206,0,0,0-1.882.59l-.877.845L12.73,9.951a.994.994,0,0,1-.574-.223L11.9,9.52a1.41,1.41,0,0,0-.415-1.659L8.934,5.948a1.4,1.4,0,0,0-1.962.271L2.364,12.375a1.382,1.382,0,0,0,.287,1.946L5.2,16.234a1.4,1.4,0,0,0,.829.271h.207a1.364,1.364,0,0,0,.925-.542l.239-.319.638.462a1.043,1.043,0,0,1,.4.654l.112.638a2.215,2.215,0,0,0,.606,1.18,1.542,1.542,0,0,0,.064,2.073h0a1.622,1.622,0,0,0,.638.367c0,.048-.032.08-.032.128a1.525,1.525,0,0,0,1.531,1.531h.032a1.492,1.492,0,0,0,.367.7,1.519,1.519,0,0,0,1.084.447c.048,0,.08-.016.128-.016a1.416,1.416,0,0,0,.367.654h0a1.519,1.519,0,0,0,1.084.447,1.384,1.384,0,0,0,.781-.255l.462.462a1.8,1.8,0,0,0,3.078-.893,1.9,1.9,0,0,0,.415.08,1.822,1.822,0,0,0,1.308-.542,1.706,1.706,0,0,0,.431-.75,2.161,2.161,0,0,0,.622.128,1.822,1.822,0,0,0,1.308-.542,1.84,1.84,0,0,0,.431-.718,1.921,1.921,0,0,0,.67.128,1.882,1.882,0,0,0,1.324-.526,1.806,1.806,0,0,0,.542-1.324,1.781,1.781,0,0,0-.447-1.148l1.34-.941a2.212,2.212,0,0,0,.75-.877l.271-.558a1.064,1.064,0,0,1,.367-.431l.351-.255.207.287a1.375,1.375,0,0,0,1.116.558,1.431,1.431,0,0,0,.829-.271l2.552-1.914a1.381,1.381,0,0,0,.271-1.946Zm-27.238,2.6s-.207.1-.271.048L3.368,13.379a.2.2,0,0,1-.048-.287L7.929,6.936s.1-.08.128-.08h.032a.161.161,0,0,1,.128.048l2.552,1.914a.2.2,0,0,1,.048.287L6.207,15.261Zm5.071,3.827-.734.734a.338.338,0,0,1-.478-.478l.734-.734a.347.347,0,0,1,.478,0,.347.347,0,0,1,0,.478Zm-.239,2.073a.325.325,0,0,1,.1-.239l.255-.255.734-.734.255-.255a.589.589,0,0,1,.239-.1.338.338,0,0,1,.239.574l-.175.175h0l-.909.909-.175.175a.347.347,0,0,1-.478,0,.325.325,0,0,1-.1-.239Zm1.595,1.387h0a.347.347,0,0,1,0-.478l.909-.909a.719.719,0,0,1,.239-.1.352.352,0,0,1,.239.1.347.347,0,0,1,0,.478l-.909.909a.347.347,0,0,1-.478,0ZM14.181,23.6h0a.347.347,0,0,1,0-.478l.415-.415a.719.719,0,0,1,.239-.1.352.352,0,0,1,.239.1.347.347,0,0,1,0,.478l-.415.415a.347.347,0,0,1-.478,0ZM24.4,20.619a.591.591,0,0,1-.941,0l-.638-.638v-.016l-1.308-1.308-1.26-1.26a.587.587,0,0,0-.845,0,.616.616,0,0,0-.175.431.577.577,0,0,0,.175.431l1.308,1.308,1.26,1.276a.645.645,0,0,1,0,.893.686.686,0,0,1-.925,0l-.59-.59h0L18.5,19.184a.587.587,0,0,0-.845,0,.616.616,0,0,0-.175.431.646.646,0,0,0,.175.431L18.63,21l1,1a.654.654,0,0,1-.925.925l-.415-.415L16.748,20.97a.6.6,0,0,0-.845.845l1.547,1.547a.655.655,0,0,1,0,.925.686.686,0,0,1-.925,0l-.447-.447a1.464,1.464,0,0,0-.144-1.946,1.574,1.574,0,0,0-.654-.367c0-.048.032-.08.032-.128a1.519,1.519,0,0,0-.447-1.084,1.426,1.426,0,0,0-.7-.367v-.032a1.519,1.519,0,0,0-.447-1.084,1.535,1.535,0,0,0-1.212-.415,1.342,1.342,0,0,0-.367-.654A1.573,1.573,0,0,0,10,17.733a1.022,1.022,0,0,1-.255-.526l-.112-.638a2.178,2.178,0,0,0-.877-1.419l-.638-.462,3.126-4.178.191.144a2.226,2.226,0,0,0,1.212.462l1.563.112-.271.271a2.049,2.049,0,0,0-.542,1.116,15.157,15.157,0,0,1-.622,3.078,1.025,1.025,0,0,0,.191.973,1.055,1.055,0,0,0,.957.383,4.039,4.039,0,0,0,3.827-3.174l.335-.335,3.11,2.95L24.4,19.694a.579.579,0,0,1,.191.447.665.665,0,0,1-.175.462Zm2.982-5.406a2.347,2.347,0,0,0-.75.877l-.271.558a1.064,1.064,0,0,1-.367.431l-1.483,1.037-2.488-2.472-3.54-3.365a.6.6,0,0,0-.829,0l-.893.893a.659.659,0,0,0-.175.367,2.743,2.743,0,0,1-2.615,2.3,17.776,17.776,0,0,0,.606-3.11.772.772,0,0,1,.175-.383l2.312-2.233a.966.966,0,0,1,.829-.271l4.417,1a2.183,2.183,0,0,0,1.69-.3l.271-.175,3.461,4.609-.319.223Zm5.055-1.579-2.552,1.914a.22.22,0,0,1-.287-.032L24.993,9.361h0s-.048-.112-.032-.144a.166.166,0,0,1,.08-.128l2.552-1.914a.381.381,0,0,1,.112-.048h.032a.146.146,0,0,1,.128.08l4.609,6.156a.206.206,0,0,1-.048.287Z" transform="translate(-2.086 -5.659)" fill="#c7c7c7"/></svg>