<svg xmlns="http://www.w3.org/2000/svg" width="20" height="19.389" viewBox="0 0 20 19.389"><path d="M17.44,15.809a.606.606,0,0,0-.6.614v.644a4.045,4.045,0,0,0-4.675.746.606.606,0,1,0,.857.857,2.805,2.805,0,0,1,2.79-.7,4.252,4.252,0,0,0-2.607,3.911.606.606,0,1,0,1.212,0,3.018,3.018,0,0,1,2.423-2.969v9.959c-.375.109-.739.223-1.079.348a8.524,8.524,0,0,0-2.655,1.46A2.852,2.852,0,0,0,12,32.782a.606.606,0,0,0,.606.606H29.567a.606.606,0,0,0,.606-.606,2.852,2.852,0,0,0-1.112-2.108c-.509-.444-9.551-2.132-11.005-1.808V18.907a3.019,3.019,0,0,1,2.424,2.969.606.606,0,1,0,1.212,0,4.252,4.252,0,0,0-2.607-3.911,2.805,2.805,0,0,1,2.79.7.606.606,0,1,0,.857-.857,4.046,4.046,0,0,0-4.676-.745v-.644a.606.606,0,0,0-.615-.614ZM29.567,14a2.424,2.424,0,1,0,2.424,2.424A2.433,2.433,0,0,0,29.567,14Zm0,1.212a1.212,1.212,0,1,1-1.212,1.212A1.2,1.2,0,0,1,29.567,15.212Zm-1.3,16.377a2.42,2.42,0,0,1,.505.588H13.4a2.42,2.42,0,0,1,.505-.588,7.555,7.555,0,0,1,2.291-1.4C17.924,29.549,27.979,31.34,28.264,31.588Z" transform="translate(-11.99 -14)" fill="#10bdd4"/></svg>