<svg xmlns="http://www.w3.org/2000/svg" width="13.266" height="21" viewBox="0 0 13.266 21"><path d="M24.2,23.278a4.008,4.008,0,0,1,.781-2.344,5.353,5.353,0,0,1,2.187-1.953,6.481,6.481,0,0,1,3.359-.781,7.962,7.962,0,0,1,3.125.625,5.3,5.3,0,0,1,2.109,1.8,3.976,3.976,0,0,1,.7,2.422,4.074,4.074,0,0,1-.391,1.8,5.959,5.959,0,0,1-1.016,1.328q-.586.586-2.109,1.875a5.967,5.967,0,0,0-.7.7,1.8,1.8,0,0,0-.391.547,1.11,1.11,0,0,0-.156.469,2.837,2.837,0,0,1-.234.859,1.339,1.339,0,0,1-1.484,1.25,1.867,1.867,0,0,1-1.094-.391,1.649,1.649,0,0,1-.469-1.25,4.342,4.342,0,0,1,.312-1.8,4.836,4.836,0,0,1,.859-1.328c.391-.391.859-.859,1.406-1.328s.859-.781,1.094-1.016a2.806,2.806,0,0,0,.547-.781,2.08,2.08,0,0,0,.234-.937,2.249,2.249,0,0,0-.7-1.641,2.534,2.534,0,0,0-1.875-.7,2.484,2.484,0,0,0-1.953.7,6.061,6.061,0,0,0-1.094,2.031c-.313.938-.781,1.406-1.563,1.406a1.59,1.59,0,0,1-1.172-.469A1.4,1.4,0,0,1,24.2,23.278ZM30.137,38.2a2.122,2.122,0,0,1-1.328-.469,1.609,1.609,0,0,1-.547-1.328,1.713,1.713,0,0,1,.547-1.328,2.038,2.038,0,0,1,1.328-.547,1.713,1.713,0,0,1,1.328.547,1.885,1.885,0,0,1,.547,1.328,1.609,1.609,0,0,1-.547,1.328A2.122,2.122,0,0,1,30.137,38.2Z" transform="translate(-23.7 -17.699)" fill="none" stroke="#c7c7c7" stroke-linecap="round" stroke-linejoin="round" stroke-width="1"/></svg>