<svg xmlns="http://www.w3.org/2000/svg" width="20" height="22.529" viewBox="0 0 20 22.529"><path d="M287.539,195.892a.41.41,0,0,0-.543-.2,10.454,10.454,0,0,1-14.291-6.328h5.441a.41.41,0,0,0,0-.819h-5.667a10.492,10.492,0,0,1,0-4.716h6.687a.41.41,0,0,0,0-.819H272.7A10.453,10.453,0,0,1,287,176.68a.41.41,0,0,0,.341-.745,11.271,11.271,0,0,0-15.491,7.072h-3.86a.41.41,0,0,0,0,.819h3.653a11.4,11.4,0,0,0,0,4.716h-3.653a.41.41,0,0,0,0,.819h3.86a11.275,11.275,0,0,0,15.491,7.073A.41.41,0,0,0,287.539,195.892Z" transform="translate(-267.576 -174.92)" fill="#10bdd4"/></svg>