<svg xmlns="http://www.w3.org/2000/svg" width="23.108" height="21.407" viewBox="0 0 23.108 21.407"><g transform="translate(-47.5 -63.5)"><path d="M67.132,64H50.976A2.985,2.985,0,0,0,48,66.976v10.2a2.985,2.985,0,0,0,2.976,2.976H53.1v4.252l4.981-4.153a.425.425,0,0,1,.273-.1h8.777a2.985,2.985,0,0,0,2.976-2.976v-10.2A2.985,2.985,0,0,0,67.132,64Z" transform="translate(0 0)" fill="rgba(0,0,0,0)" stroke="#10bdd4" stroke-linecap="round" stroke-linejoin="round" stroke-width="1"/><circle cx="1.053" cy="1.053" r="1.053" transform="translate(52.445 71.054)" fill="#10bdd4"/><circle cx="1.053" cy="1.053" r="1.053" transform="translate(58.001 71.054)" fill="#10bdd4"/><circle cx="1.053" cy="1.053" r="1.053" transform="translate(63.557 71.054)" fill="#10bdd4"/></g></svg>