<svg xmlns="http://www.w3.org/2000/svg" width="20.936" height="24.489" viewBox="0 0 20.936 24.489"><path d="M99.481,65.135c-1.45-1.775-2.474-2.678-2.474-7.572,0-4.481-2.288-6.077-4.171-6.853a1.006,1.006,0,0,1-.562-.6,2.519,2.519,0,0,0-4.972,0,1,1,0,0,1-.562.595c-1.886.776-4.171,2.367-4.171,6.853,0,4.893-1.027,5.8-2.477,7.572a1.139,1.139,0,0,0,.976,1.839H98.511A1.139,1.139,0,0,0,99.481,65.135ZM93.4,66.974v.9a3.614,3.614,0,0,1-7.228,0v-.9" transform="translate(-79.318 -47.5)" fill="none" stroke="#10bdd4" stroke-linecap="round" stroke-linejoin="round" stroke-width="1"/></svg>