<svg xmlns="http://www.w3.org/2000/svg" width="12" height="15.667" viewBox="0 0 12 15.667"><g transform="translate(-111.223 -47.625)"><rect width="11" height="14.667" rx="2" transform="translate(111.723 48.125)" fill="none" stroke="#c7c7c7" stroke-linecap="round" stroke-linejoin="round" stroke-width="1"/><g transform="translate(114.167 56.68)" fill="none" stroke="#c7c7c7" stroke-width="1"><circle cx="0.611" cy="0.611" r="0.611" stroke="none"/><circle cx="0.611" cy="0.611" r="0.111" fill="none"/></g><g transform="translate(114.167 59.125)" fill="none" stroke="#c7c7c7" stroke-width="1"><circle cx="0.611" cy="0.611" r="0.611" stroke="none"/><circle cx="0.611" cy="0.611" r="0.111" fill="none"/></g><g transform="translate(116.612 56.68)" fill="none" stroke="#c7c7c7" stroke-width="1"><circle cx="0.611" cy="0.611" r="0.611" stroke="none"/><circle cx="0.611" cy="0.611" r="0.111" fill="none"/></g><g transform="translate(116.612 59.125)" fill="none" stroke="#c7c7c7" stroke-width="1"><circle cx="0.611" cy="0.611" r="0.611" stroke="none"/><circle cx="0.611" cy="0.611" r="0.111" fill="none"/></g><g transform="translate(119.056 56.68)" fill="none" stroke="#c7c7c7" stroke-width="1"><rect width="1.222" height="3.667" rx="0.611" stroke="none"/><rect x="0.5" y="0.5" width="0.222" height="2.667" rx="0.111" fill="none"/></g><g transform="translate(114.167 54.236)" fill="none" stroke="#c7c7c7" stroke-width="1"><circle cx="0.611" cy="0.611" r="0.611" stroke="none"/><circle cx="0.611" cy="0.611" r="0.111" fill="none"/></g><g transform="translate(116.612 54.236)" fill="none" stroke="#c7c7c7" stroke-width="1"><circle cx="0.611" cy="0.611" r="0.611" stroke="none"/><circle cx="0.611" cy="0.611" r="0.111" fill="none"/></g><g transform="translate(119.056 54.236)" fill="none" stroke="#c7c7c7" stroke-width="1"><circle cx="0.611" cy="0.611" r="0.611" stroke="none"/><circle cx="0.611" cy="0.611" r="0.111" fill="none"/></g><g transform="translate(114.167 50.569)" fill="none" stroke="#c7c7c7" stroke-width="1"><rect width="6.111" height="1.833" rx="0.917" stroke="none"/><rect x="0.5" y="0.5" width="5.111" height="0.833" rx="0.417" fill="none"/></g></g></svg>