<svg xmlns="http://www.w3.org/2000/svg" width="15" height="11.999" viewBox="0 0 15 11.999"><g transform="translate(-31.498 -79.5)"><path d="M64,83.773V82.6c0-1.434.459-2.6,1.025-2.6h1.945c.2,0,.4.152.569.436l.714,1.205c.168.285.366.436.569.436h4c.566,0,1.025.463,1.025,1.9v-.2" transform="translate(-29.924)" fill="none" stroke="#10bdd4" stroke-linecap="round" stroke-linejoin="round" stroke-width="1"/><path d="M45.994,192.995l-.507,4.763a1.2,1.2,0,0,1-1.248,1.152H33.756a1.2,1.2,0,0,1-1.248-1.152L32,192.995a.878.878,0,0,1,.262-.7A1.041,1.041,0,0,1,33,192H45a1.041,1.041,0,0,1,.733.3A.878.878,0,0,1,45.994,192.995Z" transform="translate(0 -107.91)" fill="none" stroke="#10bdd4" stroke-linecap="round" stroke-linejoin="round" stroke-width="1"/></g></svg>