<svg xmlns="http://www.w3.org/2000/svg" width="14.29" height="12.001" viewBox="0 0 14.29 12.001"><path d="M5.906,32a.738.738,0,0,0-.738.738v2.351a.233.233,0,0,1-.436.115L3.625,33.269A5.167,5.167,0,0,0,.738,37.906v1.477H12.551V37.851a5.168,5.168,0,0,0-2.886-4.582L8.557,35.2a.233.233,0,0,1-.436-.115V32.738A.738.738,0,0,0,7.383,32ZM.383,40.786A.382.382,0,0,0,0,41.169a.333.333,0,0,0,.134.275C.634,41.81,2.579,43,6.645,43s6.01-1.191,6.511-1.557a.336.336,0,0,0,.134-.275.382.382,0,0,0-.383-.383Z" transform="translate(0.5 -31.5)" fill="none" stroke="#c7c7c7" stroke-linecap="round" stroke-linejoin="round" stroke-width="1"/></svg>