<?xml version="1.0" encoding="utf-8"?>
<svg version="1.1" xmlns="http://www.w3.org/2000/svg" xmlns:xlink="http://www.w3.org/1999/xlink" viewBox="190 220 500 180" xml:space="preserve">
<style type="text/css">
	.st0{fill:#00BED6;}
	.st1{fill:#222222;}
</style>
<g>
	<path class="st0" d="M254.8,232.28V363c9.85-19.67,15.39-41.87,15.39-65.36C270.19,274.15,264.64,251.95,254.8,232.28z"/>
	<path class="st0" d="M213.76,252.87c-10.65-21.93-28.89-39.5-51.3-49.29V391.7c22.41-9.79,40.64-27.36,51.3-49.29v36.66
		c19.15-21.7,30.78-50.21,30.78-81.43c0-31.22-11.62-59.73-30.78-81.43V252.87z"/>
</g>
<path class="st1" d="M305.46,262.06h15.61v70.97h-15.61V262.06z"/>
<path class="st1" d="M329.81,311.45h16.18c1.28,7.81,7.66,10.5,14.62,10.5c6.81,0,11.5-2.56,11.5-7.52s-3.12-7.52-10.5-9.37
	l-11.64-3.12c-12.35-3.26-18.17-11.07-18.17-21.43c0-11.92,10.5-19.87,26.4-19.87c15.33,0,25.98,8.52,27.11,21.29H369.7
	c-1.56-6.1-6.1-8.8-11.64-8.8c-6.1,0-10.36,2.7-10.36,7.24c0,4.54,3.41,6.96,9.51,8.52l11.92,3.12
	c12.92,3.26,18.88,10.65,18.88,21.43c0,13.77-11.92,21.01-27.82,21.01C343.72,334.45,330.52,325.79,329.81,311.45z"/>
<path class="st1" d="M404.53,310.18v-34.21h-14.76v-13.91h14.76v-11.45l15.61-11.76v23.2h20.3v13.91h-20.3v31.65
	c0,8.94,3.83,12.07,11.92,12.07c2.98,0,6.1-0.43,8.38-1.42v13.91c-3.26,0.99-6.67,1.56-11.64,1.56
	C415.18,333.74,404.53,326.21,404.53,310.18z"/>
<path class="st1" d="M445.51,297.54c0-21.01,14.48-36.91,36.48-36.91c21.72,0,37.05,16.61,35.49,40.74h-56.49
	c0.43,10.79,8.94,19.3,21.43,19.3c7.95,0,14.62-3.12,17.88-9.94h16.32c-4.12,13.2-16.61,23.71-34.78,23.71
	C460.7,334.45,445.51,318.83,445.51,297.54z M461.41,290.3h39.32c-2.41-11.5-10.5-16.61-19.16-16.61
	C471.77,273.7,463.54,279.37,461.41,290.3z"/>
<path class="st1" d="M616.02,293.14c0-11.21-4.12-18.31-12.63-18.31c-9.79,0-16.47,7.95-16.89,22.14v36.05h-15.61v-39.89
	c0-11.21-4.12-18.31-12.63-18.31c-10.22,0-17.03,8.37-17.03,23.28v34.92H525.6v-70.97h15.61v9.65c3.97-6.67,11.07-11.07,20.16-11.07
	c10.65,0,18.17,5.11,22,14.05c4.12-9.08,13.2-14.05,22.71-14.05c16.04,0,25.55,11.78,25.55,29.95v42.44h-15.61V293.14z"/>
<path class="st1" d="M641.19,262.06h15.61v70.97h-15.61V262.06z"/>
<g>
	<path class="st1" d="M673.62,274.12c-3.19,0-5.81-2.63-5.81-5.87c0-3.24,2.61-5.89,5.81-5.89s5.81,2.64,5.81,5.89
		C679.43,271.5,676.82,274.12,673.62,274.12z M673.62,263.79c-2.4,0-4.3,1.99-4.3,4.46c0,2.43,1.9,4.44,4.3,4.44
		c2.4,0,4.3-2.01,4.3-4.44C677.92,265.79,676.02,263.79,673.62,263.79z M674.77,268.89l1.43,2.21h-1.61l-1.18-1.93h-0.37v1.93h-1.38
		v-5.68h2.09c1.23,0,2.09,0.68,2.09,1.85C675.85,267.98,675.44,268.56,674.77,268.89z M673.66,266.63h-0.62v1.35h0.62
		c0.44,0,0.78-0.24,0.78-0.68C674.43,266.86,674.09,266.63,673.66,266.63z"/>
</g>
</svg>
